<svg width="520" height="269" viewBox="0 0 520 269" fill="none" xmlns="http://www.w3.org/2000/svg">
<path d="M51.5608 266.001C91.5459 210.887 231.194 89.6627 469.908 45.6849" stroke="black" stroke-width="10"/>
<path d="M477.263 42.7433C479.391 44.2976 480.005 47.08 478.634 48.9579L456.286 79.5602C454.915 81.4381 452.078 81.7004 449.949 80.1461C447.821 78.5918 447.207 75.8094 448.578 73.9315L468.443 46.7295L437.612 24.215C435.483 22.6607 434.869 19.8784 436.241 18.0005C437.612 16.1226 440.449 15.8602 442.578 17.4145L477.263 42.7433ZM472.945 41.8293L473.81 41.7492L475.749 50.5379L474.883 50.618L472.945 41.8293Z" fill="black"/>
<path d="M174.718 132.36C176.707 135.401 177.469 138.398 177.004 141.351C176.54 144.283 174.881 146.94 172.027 149.323C168.932 151.907 165.523 152.87 161.8 152.214C158.088 151.547 154.68 149.354 151.576 145.636L149.473 143.117C147.44 140.683 146.084 138.181 145.405 135.613C144.739 133.035 144.793 130.588 145.567 128.273C146.331 125.945 147.762 123.906 149.861 122.153C152.644 119.83 155.526 118.747 158.507 118.904C161.478 119.049 164.248 120.38 166.817 122.896L163.344 125.796C161.302 123.959 159.387 122.993 157.598 122.899C155.822 122.795 154.034 123.494 152.235 124.996C150.028 126.838 148.975 129.101 149.078 131.784C149.192 134.456 150.506 137.298 153.02 140.308L155.138 142.845C157.511 145.688 159.993 147.453 162.582 148.141C165.171 148.828 167.534 148.281 169.669 146.499C171.588 144.896 172.696 143.238 172.995 141.523C173.295 139.786 172.712 137.698 171.246 135.259L174.718 132.36Z" fill="black"/>
<path d="M194.288 131.5L190.776 134.043L169.66 104.886L173.172 102.343L194.288 131.5Z" fill="black"/>
<path d="M208.147 122.02L204.528 124.409L190.558 103.244L194.177 100.855L208.147 122.02ZM186.559 97.8239C186.172 97.2371 186.021 96.6254 186.106 95.9887C186.204 95.3434 186.606 94.7884 187.31 94.3236C188.014 93.8588 188.682 93.708 189.314 93.8712C189.946 94.0345 190.456 94.4095 190.843 94.9963C191.23 95.5831 191.37 96.1927 191.264 96.8249C191.157 97.4571 190.751 98.0056 190.047 98.4704C189.343 98.9352 188.679 99.0925 188.056 98.9423C187.445 98.7835 186.946 98.4107 186.559 97.8239Z" fill="black"/>
<path d="M225.518 107.785C226.858 107.013 227.796 105.933 228.331 104.544C228.865 103.154 228.836 101.819 228.243 100.538L231.798 98.4922C232.455 99.7906 232.711 101.239 232.567 102.836C232.423 104.433 231.875 105.956 230.924 107.405C229.986 108.846 228.773 109.995 227.283 110.852C224.29 112.575 221.334 112.951 218.414 111.981C215.5 110.99 213.046 108.761 211.05 105.294L210.688 104.664C209.457 102.525 208.754 100.396 208.581 98.2782C208.408 96.1605 208.788 94.2203 209.72 92.4577C210.667 90.6873 212.142 89.2254 214.146 88.0719C216.611 86.6535 219.081 86.2147 221.555 86.7557C224.043 87.2888 226.02 88.7024 227.484 90.9964L223.929 93.0422C223.002 91.6826 221.79 90.8297 220.293 90.4835C218.802 90.1159 217.345 90.3413 215.923 91.1596C214.014 92.2585 212.928 93.8026 212.667 95.7918C212.411 97.7597 213.031 100.044 214.528 102.644L214.937 103.355C216.394 105.887 218.038 107.537 219.868 108.305C221.698 109.073 223.581 108.899 225.518 107.785Z" fill="black"/>
<path d="M246.344 86.9943L245.109 90.7236L248.938 98.7648L245.023 100.629L229.546 68.1255L233.461 66.2614L242.821 85.92L243.717 82.4043L247.262 71.4754L252.023 69.2083L247.668 83.0151L263.962 91.6108L259.37 93.7973L246.344 86.9943Z" fill="black"/>
<path d="M283.759 56.5221L284.706 59.1729C285.832 56.5319 287.902 54.7427 290.916 53.8054C294.303 52.752 297.012 53.3331 299.042 55.5486C299.486 54.1343 300.238 52.8695 301.299 51.7543C302.374 50.6344 303.792 49.8007 305.552 49.2531C310.864 47.6011 314.439 49.5736 316.278 55.1706L321.325 71.3961L317.184 72.6838L312.214 56.7045C311.676 54.9738 310.879 53.8062 309.824 53.2017C308.764 52.5822 307.302 52.5626 305.437 53.1426C303.9 53.6206 302.768 54.4799 302.041 55.7205C301.31 56.9461 301.103 58.3603 301.422 59.9631L306.42 76.0319L302.257 77.3266L297.322 61.4592C296.227 57.938 293.956 56.7134 290.509 57.7854C287.794 58.6299 286.296 60.364 286.015 62.9875L291.514 80.6677L287.374 81.9554L279.843 57.7403L283.759 56.5221Z" fill="black"/>
<path d="M343.452 67.1438C340.083 67.8293 337.118 67.2847 334.557 65.5099C331.992 63.7198 330.332 60.9721 329.578 57.2668L329.419 56.4859C328.918 54.0208 328.938 51.7286 329.479 49.6094C330.033 47.4716 331.041 45.6879 332.504 44.258C333.979 42.8097 335.704 41.8846 337.679 41.4826C340.91 40.8252 343.637 41.3783 345.862 43.1419C348.087 44.9056 349.602 47.7702 350.409 51.7358L350.769 53.5042L333.935 56.9303C334.495 59.3676 335.61 61.2055 337.281 62.444C338.965 63.6641 340.863 64.0591 342.976 63.6291C344.476 63.3237 345.685 62.7588 346.601 61.9345C347.518 61.1102 348.264 60.1133 348.839 58.9438L351.845 60.4367C350.414 64.0605 347.616 66.2962 343.452 67.1438ZM338.39 44.9736C336.675 45.3226 335.363 46.2432 334.455 47.7356C333.544 49.2126 333.18 51.1045 333.362 53.4113L345.81 50.878L345.745 50.5565C345.183 48.4225 344.261 46.872 342.98 45.905C341.696 44.9226 340.166 44.6121 338.39 44.9736Z" fill="black"/>
<path d="M366.708 52.9963L362.831 53.5358L359.154 29.3194L363.657 28.6927L366.708 52.9963ZM363.394 60.9824C363.297 60.286 363.426 59.6766 363.779 59.1542C364.145 58.6141 364.747 58.2859 365.582 58.1696C366.418 58.0533 367.086 58.2049 367.586 58.6244C368.084 59.0283 368.381 59.5785 368.478 60.275C368.575 60.9714 368.439 61.5819 368.071 62.1064C367.7 62.6155 367.096 62.9282 366.261 63.0445C365.425 63.1608 364.759 63.0247 364.263 62.6362C363.781 62.2301 363.491 61.6788 363.394 60.9824Z" fill="black"/>
</svg>
